<svg width="24" height="24" viewBox="0 0 24 24" fill="none" xmlns="http://www.w3.org/2000/svg">
<path d="M19.998 9.49741C19.7328 9.49741 19.4784 9.60276 19.2909 9.7903C19.1034 9.97784 18.998 10.2322 18.998 10.4974V14.7254C18.9969 15.5923 18.6521 16.4235 18.0391 17.0365C17.4261 17.6495 16.5949 17.9943 15.728 17.9954H10.415L12.206 16.2084C12.3884 16.0201 12.4896 15.7676 12.4877 15.5054C12.4858 15.2432 12.381 14.9922 12.1958 14.8065C12.0107 14.6209 11.76 14.5153 11.4978 14.5127C11.2356 14.51 10.9829 14.6105 10.794 14.7924L7.29 18.2874C7.10245 18.475 6.99676 18.7292 6.996 18.9944V18.9954C6.996 19.0184 7.008 19.0374 7.009 19.0604C7.01436 19.3034 7.11533 19.5344 7.29 19.7034L10.792 23.2074C10.9806 23.3896 11.2332 23.4904 11.4954 23.4881C11.7576 23.4858 12.0084 23.3806 12.1938 23.1952C12.3792 23.0098 12.4844 22.759 12.4867 22.4968C12.489 22.2346 12.3882 21.982 12.206 21.7934L10.409 19.9954H15.727C17.1242 19.9938 18.4637 19.4381 19.4517 18.4501C20.4397 17.4621 20.9954 16.1226 20.997 14.7254V10.4974C20.997 10.2322 20.8916 9.97784 20.7041 9.7903C20.5166 9.60276 20.2632 9.49741 19.998 9.49741ZM13.588 6.00141L11.793 7.79641C11.6975 7.88865 11.6213 7.999 11.5689 8.121C11.5165 8.24301 11.4889 8.37423 11.4877 8.50701C11.4866 8.63979 11.5119 8.77147 11.5622 8.89436C11.6125 9.01726 11.6867 9.12891 11.7806 9.2228C11.8745 9.31669 11.9861 9.39095 12.109 9.44123C12.2319 9.49151 12.3636 9.51681 12.4964 9.51566C12.6292 9.5145 12.7604 9.48692 12.8824 9.43451C13.0044 9.3821 13.1148 9.30592 13.207 9.21041L16.707 5.71041C16.8947 5.52237 17 5.26756 17 5.00191C17 4.73625 16.8947 4.48145 16.707 4.29341L13.207 0.793407C13.0184 0.611249 12.7658 0.510455 12.5036 0.512733C12.2414 0.515012 11.9906 0.62018 11.8052 0.805589C11.6198 0.990997 11.5146 1.24181 11.5123 1.50401C11.51 1.7662 11.6108 2.01881 11.793 2.20741L13.587 4.00141H8.27C6.87288 4.00326 5.53351 4.55908 4.54559 5.547C3.55768 6.53492 3.00185 7.87428 3 9.27141V13.5004C3 13.7656 3.10536 14.02 3.29289 14.2075C3.48043 14.3951 3.73478 14.5004 4 14.5004C4.26522 14.5004 4.51957 14.3951 4.70711 14.2075C4.89464 14.02 5 13.7656 5 13.5004V9.27141C5.00132 8.40438 5.3464 7.57326 5.95958 6.96028C6.57275 6.34729 7.40397 6.00247 8.271 6.00141H13.588Z" fill="#262626"/>
</svg>
